<svg xmlns="http://www.w3.org/2000/svg" viewBox="0 0 1200 1200" width="1200" height="1200" preserveAspectRatio="xMidYMid slice"><defs><radialGradient id="bgPurple" cx="18%" cy="12%" r="60%"><stop offset="0%" stop-color="#8b5cf6" stop-opacity="0.42"></stop><stop offset="65%" stop-color="#8b5cf6" stop-opacity="0"></stop></radialGradient><radialGradient id="bgAmber" cx="88%" cy="78%" r="70%"><stop offset="0%" stop-color="#f59e0b" stop-opacity="0.32"></stop><stop offset="65%" stop-color="#f59e0b" stop-opacity="0"></stop></radialGradient><radialGradient id="vignette" cx="50%" cy="50%" r="80%"><stop offset="45%" stop-color="#000" stop-opacity="0"></stop><stop offset="100%" stop-color="#000" stop-opacity="0.55"></stop></radialGradient><linearGradient id="bell" x1="0" y1="0" x2="0" y2="1"><stop offset="0%" stop-color="#fff1b5"></stop><stop offset="18%" stop-color="#ffd84a"></stop><stop offset="55%" stop-color="#e6a912"></stop><stop offset="85%" stop-color="#9c6b06"></stop><stop offset="100%" stop-color="#5a3d03"></stop></linearGradient><radialGradient id="hl" cx="50%" cy="50%" r="50%"><stop offset="0%" stop-color="#fffbe2" stop-opacity="0.85"></stop><stop offset="60%" stop-color="#fff1a8" stop-opacity="0.25"></stop><stop offset="100%" stop-color="#fff1a8" stop-opacity="0"></stop></radialGradient><radialGradient id="sh" cx="50%" cy="50%" r="50%"><stop offset="0%" stop-color="#3d2604" stop-opacity="0.55"></stop><stop offset="60%" stop-color="#3d2604" stop-opacity="0.18"></stop><stop offset="100%" stop-color="#3d2604" stop-opacity="0"></stop></radialGradient><linearGradient id="lip" x1="0" y1="0" x2="0" y2="1"><stop offset="0%" stop-color="#8b5e06"></stop><stop offset="30%" stop-color="#ffe87a"></stop><stop offset="60%" stop-color="#e6a912"></stop><stop offset="100%" stop-color="#5a3d03"></stop></linearGradient><linearGradient id="crown" x1="0" y1="0" x2="0" y2="1"><stop offset="0%" stop-color="#fff1b5"></stop><stop offset="50%" stop-color="#e6a912"></stop><stop offset="100%" stop-color="#7a5208"></stop></linearGradient><radialGradient id="clap" cx="40%" cy="35%" r="70%"><stop offset="0%" stop-color="#fff6cf"></stop><stop offset="40%" stop-color="#e6a912"></stop><stop offset="100%" stop-color="#5a3d03"></stop></radialGradient><radialGradient id="shd" cx="50%" cy="50%" r="50%"><stop offset="0%" stop-color="#000" stop-opacity="0.55"></stop><stop offset="100%" stop-color="#000" stop-opacity="0"></stop></radialGradient></defs><rect width="1200" height="1200" fill="#000"></rect><rect width="1200" height="1200" fill="url(#bgPurple)" opacity="1.000"></rect><rect width="1200" height="1200" fill="url(#bgAmber)" opacity="1.000"></rect><rect width="1200" height="1200" fill="url(#vignette)" opacity="1.000"></rect><g transform="translate(600 456)" opacity="0.045"><path d="M -470.4646153846154 -331.7378698224852 Q -591.0965680473373 0, -470.4646153846154 331.7378698224852" stroke="#fff2c2" stroke-width="9.57396449704142" fill="none" stroke-linecap="round"></path><path d="M 470.4646153846154 -331.7378698224852 Q 591.0965680473373 0, 470.4646153846154 331.7378698224852" stroke="#fff2c2" stroke-width="9.57396449704142" fill="none" stroke-linecap="round"></path></g><g transform="translate(600 456) scale(0.7000) rotate(-0.97) translate(-512 -534)"><ellipse cx="512" cy="870" rx="300" ry="36" fill="url(#shd)"></ellipse><path d="M 478 230 C 478 192, 496 174, 512 174 C 528 174, 546 192, 546 230 L 546 290 L 478 290 Z" fill="url(#crown)"></path><ellipse cx="512" cy="216" rx="17" ry="11" fill="#2a1d04" opacity="0.85"></ellipse><ellipse cx="503" cy="208" rx="3" ry="6" fill="#fff6cf" opacity="0.85" transform="rotate(-20 503 208)"></ellipse><path d="M 484 290 C 320 340, 180 480, 320 540 C 340 600, 304 680, 286 716 L 738 716 C 720 680, 684 600, 704 540 C 844 480, 704 340, 540 290 Z" fill="url(#bell)"></path><g transform="translate(386 510) rotate(-6)"><ellipse cx="0" cy="0" rx="38" ry="180" fill="url(#hl)"></ellipse></g><g transform="translate(640 530) rotate(8)"><ellipse cx="0" cy="0" rx="34" ry="160" fill="url(#sh)"></ellipse></g><path d="M 268 712 L 756 712 C 770 750, 778 780, 762 798 C 720 814, 600 824, 512 824 C 424 814, 304 814, 262 798 C 246 780, 254 750, 268 712 Z" fill="url(#lip)"></path><path d="M 286 716 L 738 716 C 728 736, 716 748, 702 752 L 322 752 C 308 748, 296 736, 286 716 Z" fill="#3d2a05" opacity="0.55"></path><circle cx="498" cy="188" r="4" fill="#fff" opacity="0.95"></circle><g transform="rotate(-0.9826526099472024 512 808)"><path d="M 506 720 L 518 720 L 518 822 L 506 822 Z" fill="#6b4806"></path><ellipse cx="512" cy="854" rx="40" ry="42" fill="url(#clap)"></ellipse><ellipse cx="500" cy="844" rx="11" ry="7" fill="#fff6cf" opacity="0.85"></ellipse></g></g><text x="600" y="829.2" font-family="-apple-system, system-ui, sans-serif" font-size="72" font-weight="700" letter-spacing="-1" text-anchor="middle" opacity="1.000"><tspan fill="#ffffff">Final </tspan><tspan fill="#a78bfa">Call</tspan></text><text x="600" y="890.4000000000001" font-family="-apple-system, system-ui, sans-serif" font-size="31.2" font-weight="500" letter-spacing="9.36" text-anchor="middle" fill="#a78bfa" opacity="0.700">ÖDÜLÜNÜ KAÇIRMA</text><text x="600" y="1116" font-family="-apple-system, system-ui, sans-serif" font-size="26.4" font-weight="500" letter-spacing="5.28" text-anchor="middle" fill="#a89a82" opacity="0.500">GLOBAL MARKETING AWARDS</text></svg>